# xmcd
#
# Track frame offsets:
# 150
# 30215
# 53067
# 72360
# 93927
# 127857
# 148437
# 160910
# 195110
# 225167
# 252080
# 275515
# 290322
#
# Disc length: 4177 seconds
#
#
# Revision: 0
# Processed by: cddbd v1.5.2PL0 Copyright (c) Steve Scherf et al.
# Submitted via: FreeRIP 2.96 
#
DISCID=a5104f0d
DTITLE=Various Artist - Jazz Saxophone In a Soulful Mood
DYEAR=1997
DGENRE=Jazz
TTITLE0=Stan Getz - Blue Skies
TTITLE1=Gerry Mulligan - I've Just Seen Her
TTITLE2=Bud Shank - Here's That Rainy Day
TTITLE3=Red Halloway - Happyness Is a Thing Called Joe
TTITLE4=Benny Cartier - Loverman
TTITLE5=Al Cohn - This Is New
TTITLE6=Kenny Davern - Brother, Can You Spare a Dime
TTITLE7=Rickey Woodard - Stardust
TTITLE8=Phil Woods Quartet - My Man Benny
TTITLE9=Flip Phillips - I Gotta Right To Sing the Blues
TTITLE10=The Harold Land - Rapture
TTITLE11=Lee Konitz - I'm Getting Sentimental Over You
TTITLE12=Scott Hamilton - Grooveyard
EXTD=
EXTT0=
EXTT1=
EXTT2=
EXTT3=
EXTT4=
EXTT5=
EXTT6=
EXTT7=
EXTT8=
EXTT9=
EXTT10=
EXTT11=
EXTT12=
PLAYORDER=
